<mxfile host="app.diagrams.net" modified="2024-01-05T12:03:06.671Z" agent="Mozilla/5.0 (Windows NT 10.0; Win64; x64) AppleWebKit/537.36 (KHTML, like Gecko) Chrome/120.0.0.0 Safari/537.36" version="22.1.16" etag="wroHUHVrOla1uHj13NBi" type="github">
  <diagram name="PÃ¡gina-1" id="ACHZcEqrxh96oqm6vNkk">
    <mxGraphModel>
      <root>
        <mxCell id="0" />
        <mxCell id="1" parent="0" />
      </root>
    </mxGraphModel>
  </diagram>
</mxfile>
